<svg xmlns="http://www.w3.org/2000/svg" version="1.1" xmlns:xlink="http://www.w3.org/1999/xlink" width="512" height="512" x="0" y="0" viewBox="0 0 512 512" style="enable-background:new 0 0 512 512" xml:space="preserve"><g><path d="M353.671 153.709a7.5 7.5 0 0 0-8.424 12.412C395.022 199.9 424.738 255.93 424.738 316c0 99.804-81.196 181-181 181s-181-81.196-181-181c0-20.906 3.497-41.239 10.4-60.625l23.939 34.87a7.502 7.502 0 0 0 12.368 0l49.429-71.999c7.777-11.288 11.888-24.514 11.888-38.246a67.079 67.079 0 0 0-5.673-27.043C189.458 141.201 216.488 135 243.738 135c8.609 0 17.244.613 25.717 1.816l28.099 40.929a7.502 7.502 0 0 0 12.367 0l49.432-71.999c7.775-11.288 11.886-24.514 11.886-38.246 0-37.22-30.28-67.5-67.5-67.5s-67.5 30.28-67.5 67.5c0 13.731 4.11 26.957 11.88 38.236l10.165 14.806A198.869 198.869 0 0 0 243.74 120c-29.882 0-59.531 6.882-86.192 19.937-12.306-16.63-32.054-27.437-54.284-27.437-37.22 0-67.5 30.28-67.5 67.5 0 13.732 4.11 26.958 11.88 38.236l15.219 22.168C52.83 264.355 47.738 289.764 47.738 316c0 108.075 87.925 196 196 196s196-87.925 196-196c0-65.047-32.175-125.717-86.067-162.291zM303.738 15c28.948 0 52.5 23.552 52.5 52.5 0 10.68-3.194 20.963-9.245 29.746l-43.255 63.003-23.741-34.582c-.053-.078-.104-.156-.159-.232l-19.359-28.199c-6.045-8.774-9.24-19.058-9.24-29.736-.001-28.948 23.551-52.5 52.499-52.5zM50.762 180c0-28.948 23.552-52.5 52.5-52.5s52.5 23.552 52.5 52.5c0 10.68-3.195 20.962-9.246 29.746l-43.254 63.003-43.261-63.013c-6.044-8.774-9.239-19.056-9.239-29.736z" fill="#FFFFFF" opacity="1" data-original="#000000"></path><path d="M140.762 180c0-20.678-16.822-37.5-37.5-37.5s-37.5 16.822-37.5 37.5 16.822 37.5 37.5 37.5 37.5-16.822 37.5-37.5zm-60 0c0-12.406 10.094-22.5 22.5-22.5s22.5 10.094 22.5 22.5-10.094 22.5-22.5 22.5-22.5-10.094-22.5-22.5zM183.738 302.698c-20.678 0-37.5 16.822-37.5 37.5s16.822 37.5 37.5 37.5 37.5-16.822 37.5-37.5-16.822-37.5-37.5-37.5zm0 60c-12.406 0-22.5-10.094-22.5-22.5s10.094-22.5 22.5-22.5 22.5 10.094 22.5 22.5-10.093 22.5-22.5 22.5z" fill="#FFFFFF" opacity="1" data-original="#000000"></path><path d="M183.738 272.698c-37.22 0-67.5 30.28-67.5 67.5 0 13.732 4.11 26.958 11.88 38.236l49.437 72.009a7.502 7.502 0 0 0 12.367 0l49.431-71.999c7.776-11.287 11.887-24.513 11.887-38.246-.002-37.219-30.282-67.5-67.502-67.5zm43.255 97.246-43.255 63.003-43.261-63.013c-6.044-8.774-9.239-19.057-9.239-29.736 0-28.948 23.552-52.5 52.5-52.5s52.5 23.552 52.5 52.5c0 10.681-3.194 20.963-9.245 29.746zM303.738 105c20.678 0 37.5-16.822 37.5-37.5S324.416 30 303.738 30s-37.5 16.822-37.5 37.5 16.823 37.5 37.5 37.5zm0-60c12.406 0 22.5 10.094 22.5 22.5S316.145 90 303.738 90s-22.5-10.094-22.5-22.5 10.094-22.5 22.5-22.5zM468.738 45h-75c-4.143 0-7.5 3.357-7.5 7.5s3.357 7.5 7.5 7.5h75c4.143 0 7.5-3.357 7.5-7.5s-3.357-7.5-7.5-7.5zM422.49 90c4.143 0 7.5-3.357 7.5-7.5s-3.357-7.5-7.5-7.5h-30c-4.143 0-7.5 3.357-7.5 7.5s3.357 7.5 7.5 7.5zM356.238 325.198c0-4.143-3.357-7.5-7.5-7.5h-75c-4.143 0-7.5 3.357-7.5 7.5s3.357 7.5 7.5 7.5h75c4.143 0 7.5-3.357 7.5-7.5zM272.49 347.698c-4.143 0-7.5 3.357-7.5 7.5s3.357 7.5 7.5 7.5h30c4.143 0 7.5-3.357 7.5-7.5s-3.357-7.5-7.5-7.5z" fill="#FFFFFF" opacity="1" data-original="#000000"></path></g></svg>