<?xml version="1.0" encoding="UTF-8"?><svg id="Layer_1" xmlns="http://www.w3.org/2000/svg" viewBox="0 0 351.66 77.96"><defs><style>.cls-1{fill:#fff;stroke-width:0px;}</style></defs><path class="cls-1" d="M91.72,36.72c0-7.79,5.96-13.31,14.08-13.31,4.72,0,8.52,1.72,11.01,4.83l-4.61,4.17c-1.61-1.94-3.58-3-6.03-3-4.2,0-7.13,2.93-7.13,7.31s2.93,7.31,7.13,7.31c2.45,0,4.42-1.06,6.03-3l4.61,4.17c-2.49,3.11-6.29,4.83-11.01,4.83-8.12,0-14.08-5.52-14.08-13.31Z"/><path class="cls-1" d="M118.12,38.95c0-6.4,5.12-11.04,12.1-11.04s12.1,4.64,12.1,11.04-5.12,11.04-12.1,11.04-12.1-4.68-12.1-11.04ZM135.2,38.95c0-3.18-2.08-5.41-4.97-5.41s-5.01,2.23-5.01,5.41,2.12,5.41,5.01,5.41,4.97-2.23,4.97-5.41Z"/><path class="cls-1" d="M154.98,44.18h-2.16v5.34h-7.06v-21.13h10.24c5.96,0,9.76,3.03,9.76,7.93,0,3.07-1.5,5.37-4.1,6.69l4.57,6.51h-7.57l-3.69-5.34ZM155.49,33.69h-2.67v5.3h2.67c2.16,0,3.22-1.02,3.22-2.67s-1.06-2.63-3.22-2.63Z"/><path class="cls-1" d="M190.7,28.39v21.13h-5.81l-8.37-9.87v9.87h-6.91v-21.13h5.81l8.37,9.95v-9.95h6.91Z"/><path class="cls-1" d="M213.18,44.33v5.19h-17.73v-21.13h17.33v5.19h-10.38v2.78h9.14v4.9h-9.14v3.07h10.79Z"/><path class="cls-1" d="M225.98,44.18h-2.16v5.34h-7.06v-21.13h10.24c5.96,0,9.76,3.03,9.76,7.93,0,3.07-1.5,5.37-4.1,6.69l4.57,6.51h-7.57l-3.69-5.34ZM226.49,33.69h-2.67v5.3h2.67c2.16,0,3.22-1.02,3.22-2.67s-1.06-2.63-3.22-2.63Z"/><path class="cls-1" d="M238.92,47.8l2.34-5.08c2.01,1.24,4.68,2.01,7.28,2.01,2.05,0,2.74-.59,2.74-1.28,0-2.85-11.96-.48-11.96-8.48,0-4.02,3.73-7.06,10.05-7.06,2.78,0,5.74.55,7.93,1.83l-2.16,5.08c-1.97-1.21-4.06-1.65-6.03-1.65s-2.85.62-2.85,1.43c0,2.71,11.96.48,11.96,8.26,0,4.02-3.47,7.13-10.05,7.13-3.47,0-7.13-.88-9.25-2.19Z"/><path class="cls-1" d="M264.88,33.73h-6.36v-5.34h19.78v5.34h-6.36v15.8h-7.06v-15.8Z"/><path class="cls-1" d="M279.14,38.95c0-6.4,5.12-11.04,12.1-11.04s12.1,4.64,12.1,11.04-5.12,11.04-12.1,11.04-12.1-4.68-12.1-11.04ZM296.22,38.95c0-3.18-2.08-5.41-4.97-5.41s-5.01,2.23-5.01,5.41,2.12,5.41,5.01,5.41,4.97-2.23,4.97-5.41Z"/><path class="cls-1" d="M327.88,28.39v21.13h-5.81l-8.37-9.87v9.87h-6.91v-21.13h5.81l8.37,9.95v-9.95h6.91Z"/><path class="cls-1" d="M350.37,44.33v5.19h-17.73v-21.13h17.33v5.19h-10.38v2.78h9.14v4.9h-9.14v3.07h10.79Z"/><path class="cls-1" d="M142.76,77.67l-.02-9.36-4.64,7.75h-1.17l-4.64-7.63v9.24h-2.5v-14.12h2.16l5.61,9.36,5.51-9.36h2.16l.02,14.12h-2.48Z"/><path class="cls-1" d="M178.38,74.4h-7.06l-1.39,3.27h-2.7l6.35-14.12h2.58l6.38,14.12h-2.74l-1.41-3.27ZM177.51,72.34l-2.66-6.17-2.64,6.17h5.31Z"/><path class="cls-1" d="M213.75,77.67l-2.88-4.14c-.18.02-.36.02-.54.02h-3.19v4.12h-2.62v-14.12h5.81c3.71,0,6.01,1.9,6.01,5.02,0,2.14-1.09,3.71-3.01,4.46l3.25,4.64h-2.82ZM210.19,65.77h-3.07v5.63h3.07c2.3,0,3.49-1.05,3.49-2.82s-1.19-2.8-3.49-2.8Z"/><path class="cls-1" d="M239.42,63.55h2.62v14.12h-2.62v-14.12Z"/><path class="cls-1" d="M278.58,63.55v14.12h-2.16l-7.79-9.56v9.56h-2.6v-14.12h2.16l7.79,9.56v-9.56h2.6Z"/><path class="cls-1" d="M313.14,75.47v2.2h-10.59v-14.12h10.31v2.2h-7.69v3.67h6.82v2.16h-6.82v3.89h7.97Z"/><polygon class="cls-1" points="35.22 38.98 57.56 77.67 23.63 77.67 1.29 38.98 23.63 .29 57.56 .29 35.22 38.98"/><polygon class="cls-1" points="79.29 38.98 75.18 46.1 62.19 68.6 49.2 46.1 45.09 38.98 49.2 31.85 62.19 9.36 75.18 31.85 79.29 38.98"/></svg>