<svg xmlns="http://www.w3.org/2000/svg" version="1.1" xmlns:xlink="http://www.w3.org/1999/xlink" width="512" height="512" x="0" y="0" viewBox="0 0 64 64" style="enable-background:new 0 0 512 512" xml:space="preserve" class=""><g><path d="M34.43 60a1 1 0 0 1-.932-.636L28.047 45.42a1 1 0 0 1 .597-1.307l17.014-6.054a1.014 1.014 0 0 1 .667-.001l17.014 5.99a1.002 1.002 0 0 1 .582 1.35l-6.234 14.01a1 1 0 0 1-1.829-.813l5.794-13.02-15.657-5.513-15.71 5.59 5.076 12.985A1 1 0 0 1 34.43 60zM18.993 57a1 1 0 0 1-1-1v-2h-13v2a1 1 0 0 1-2 0v-3a1 1 0 0 1 1-1h15a1 1 0 0 1 1 1v3a1 1 0 0 1-1 1z" fill="#FFFFFF" opacity="1" data-original="#000000" class=""></path><path d="M15.993 54a1 1 0 0 1-1-1V13a1 1 0 0 1 2 0v40a1 1 0 0 1-1 1zM15.993 8a1 1 0 0 1-1-1V2h-7v5a1 1 0 0 1-2 0V1a1 1 0 0 1 1-1h9a1 1 0 0 1 1 1v6a1 1 0 0 1-1 1zM6.993 54a1 1 0 0 1-1-1V13a1 1 0 0 1 2 0v40a1 1 0 0 1-1 1zM46.482 27a3.438 3.438 0 0 1-1.154-.197 3.482 3.482 0 0 1-.92-.491 82.094 82.094 0 0 1-1.992-1.494 1.018 1.018 0 0 1-.2-1.415.983.983 0 0 1 1.387-.195c.262.202 1.137.877 1.974 1.481a1.583 1.583 0 0 0 .415.227 1.54 1.54 0 0 0 1.701-.518 1.514 1.514 0 0 0-.303-2.11l-1.001-.75a3.506 3.506 0 0 1-1.397-2.798l.001-5.74a1 1 0 0 1 1-1h.001a1 1 0 0 1 1 1l-.002 5.74a1.5 1.5 0 0 0 .598 1.198l1.006.754A3.506 3.506 0 0 1 46.482 27z" fill="#FFFFFF" opacity="1" data-original="#000000" class=""></path><path d="M51.993 14h-51a1 1 0 0 1-1-1V7a1 1 0 0 1 1-1h51a1 1 0 0 1 1 1v6a1 1 0 0 1-1 1zm-50-2h49V8h-49z" fill="#FFFFFF" opacity="1" data-original="#000000" class=""></path><path d="M.993 8a1 1 0 0 1-.707-1.707l6-6A1 1 0 0 1 7.7 1.707l-6 6A.997.997 0 0 1 .993 8zM15.993 53a.997.997 0 0 1-.707-.293l-9-9a1 1 0 0 1-.037-1.375l8.366-9.305-8.329-8.32a1 1 0 0 1-.037-1.375l9-10.02a1 1 0 0 1 1.488 1.336l-8.366 9.315 8.33 8.32a1 1 0 0 1 .036 1.375l-8.366 9.306 8.33 8.329A1 1 0 0 1 15.992 53zM51.994 8a.999.999 0 0 1-.165-.014l-35.46-5.91-5.033 5.593A1 1 0 0 1 9.85 6.331l5.4-6a1.002 1.002 0 0 1 .907-.317l36 6A1 1 0 0 1 51.994 8zM31.993 44.995a.995.995 0 0 1-1-.995V31a1 1 0 0 1 1-1h28a1 1 0 0 1 1 1v12.93a1 1 0 1 1-2 0V32h-26v11.99a1.004 1.004 0 0 1-1 1.005z" fill="#FFFFFF" opacity="1" data-original="#000000" class=""></path><path d="M45.993 40a1 1 0 0 1-1-1v-8a1 1 0 0 1 2 0v8a1 1 0 0 1-1 1zM62.993 60h-37a1 1 0 0 1 0-2h37a1 1 0 0 1 0 2zM35.993 41a1 1 0 0 1-1-1v-6a1 1 0 0 1 2 0v6a1 1 0 0 1-1 1zM40.993 39a1 1 0 0 1-1-1v-4a1 1 0 0 1 2 0v4a1 1 0 0 1-1 1zM55.993 41a1 1 0 0 1-1-1v-6a1 1 0 0 1 2 0v6a1 1 0 0 1-1 1zM50.993 39a1 1 0 0 1-1-1v-4a1 1 0 0 1 2 0v4a1 1 0 0 1-1 1z" fill="#FFFFFF" opacity="1" data-original="#000000" class=""></path><path d="M25.993 64a1 1 0 0 1-1-1v-6h-24a1 1 0 0 1 0-2h25a1 1 0 0 1 1 1v7a1 1 0 0 1-1 1z" fill="#FFFFFF" opacity="1" data-original="#000000" class=""></path></g></svg>